<?xml version="1.0" encoding="utf-8"?>
<!-- Generator: Adobe Illustrator 25.3.1, SVG Export Plug-In . SVG Version: 6.00 Build 0)  -->
<svg version="1.1" id="Selected" xmlns="http://www.w3.org/2000/svg" xmlns:xlink="http://www.w3.org/1999/xlink" x="0px" y="0px"
	 viewBox="0 0 256 256" style="enable-background:new 0 0 256 256;" xml:space="preserve">
<style type="text/css">
	.st0{display:none;fill:#E47D33;}
	.st1{fill:#E47D33;}
	.st2{opacity:0.51;fill:#FFFFFF;}
	.st3{opacity:0.51;fill:#8B8B8B;}
</style>
<path id="Selected_Rectangle" class="st0" d="M237.36,256H18.64C8.35,256,0,247.65,0,237.36V18.64C0,8.35,8.35,0,18.64,0h218.72
	C247.65,0,256,8.35,256,18.64v218.72C256,247.65,247.65,256,237.36,256z"/>
<g id="Not_Selected_Rectangle">
	<path class="st1" d="M237.36,8C243.23,8,248,12.77,248,18.64v218.72c0,5.87-4.77,10.64-10.64,10.64H18.64
		C12.77,248,8,243.23,8,237.36V18.64C8,12.77,12.77,8,18.64,8H237.36 M237.36,0H18.64C8.35,0,0,8.35,0,18.64v218.72
		C0,247.65,8.35,256,18.64,256h218.72c10.3,0,18.64-8.35,18.64-18.64V18.64C256,8.35,247.65,0,237.36,0L237.36,0z"/>
</g>
<path id="Selected_Rabbit" class="st2" d="M52.64,197.78c0.13-0.56,0.4-3.42,0.72-11.4c0.24-5.96-2.91-12.41-5.59-16.77
	c-3.12-5.07-6.61-8.97-7.98-10.02c-2.84-2.19-9.89-9.4-10.4-9.93c-0.18-0.2-0.47-0.26-0.72-0.13c-0.2,0.16-0.19,0.69,0.31,1.53
	c1.1,1.87,3.08,8.93,4.39,13.61c0.32,1.16,0.61,2.16,0.8,2.83c0.53,1.79,0.97,5.47,1.45,9.39c0.39,3.24,0.8,6.59,1.26,8.79
	c0.96,4.65,7.74,13.08,7.81,13.17l0.29,0.36l-0.39,0.25c-0.02,0.02-2.54,1.61-3.73,3.38c-0.53,0.79-0.57,1.76-0.61,2.88
	c-0.06,1.33-0.12,2.83-1.02,4.39c-1.04,1.83-2.86,3.05-4.11,3.72c0.45,0.02,0.8,0.02,0.8,0.02l1.24-0.02l-0.99,0.76
	c-0.39,0.3-0.98,1.07-1.66,3.01c0.18-0.07,0.37-0.13,0.55-0.18l0.61-0.18l-0.11,0.64c-0.18,1.07,0.2,2.61,0.48,3.51
	c0.45-0.42,0.92-0.8,1.43-1.13l0.33-0.23l0.23,0.33c0.01,0.02,1.19,1.7,3.23,4.03c1.47,1.66,3,2.6,4.22,3.35
	c0.83,0.51,1.55,0.94,2.07,1.49c4.23,4.32,8.87,2.68,10.34,1.27c0.94-0.85,4.04-3.07,7.42-5.04c3.25-1.87,4.36-5.14,4.37-5.17
	l0.12-0.38l0.38,0.11c0.65,0.19,1.2,0.84,1.56,1.37c0.46-1.49,0.56-3.82,0.56-3.85l0.02-0.55l0.52,0.18
	c0.22,0.08,0.42,0.2,0.61,0.33c-0.64-2.09-1.9-2.93-1.96-2.97l-1.02-0.66l1.34-0.1c-3.37-1.93-4.13-7.54-4.4-9.59
	c-0.02-0.13-0.03-0.25-0.05-0.35c-0.2-1.33-2.37-3.29-3.19-3.93l-0.19-0.15l0.08-0.57c0.36-5.1,5.11-8.63,5.31-8.79l0.34-0.25
	l0.24,0.34c4.26,6.11,9.25,8.98,13.17,10.42c1.75,0.63,3.55,1.1,5.39,1.41l0.57,0.11c1.16,0.25,1.56,0.16,1.66,0.12
	c-0.03-0.12-0.2-0.53-1.26-1.43c-2.96-2.53-5.54-6.23-7.53-9.75c-2.36-4.16-3.91-8.04-4.34-9.38c-0.68-1.81-1.38-2.66-2.4-2.86
	c-8.93-0.49-13.74,1.23-15.33,1.8l-0.23,0.08c-1.14,0.45-1.33,0.75-1.37,1.53c-0.15,2.54-1.34,14.73-1.35,14.86l-0.03,0.36
	l-4.29,0.04"/>
<path id="Not_Selected_Rabbit" class="st3" d="M52.64,197.78c0.13-0.56,0.4-3.42,0.72-11.4c0.24-5.96-2.91-12.41-5.59-16.77
	c-3.12-5.07-6.61-8.97-7.98-10.02c-2.84-2.19-9.89-9.4-10.4-9.93c-0.18-0.2-0.47-0.26-0.72-0.13c-0.2,0.16-0.19,0.69,0.31,1.53
	c1.1,1.87,3.08,8.93,4.39,13.61c0.32,1.16,0.61,2.16,0.8,2.83c0.53,1.79,0.97,5.47,1.45,9.39c0.39,3.24,0.8,6.59,1.26,8.79
	c0.96,4.65,7.74,13.08,7.81,13.17l0.29,0.36l-0.39,0.25c-0.02,0.02-2.54,1.61-3.73,3.38c-0.53,0.79-0.57,1.76-0.61,2.88
	c-0.06,1.33-0.12,2.83-1.02,4.39c-1.04,1.83-2.86,3.05-4.11,3.72c0.45,0.02,0.8,0.02,0.8,0.02l1.24-0.02l-0.99,0.76
	c-0.39,0.3-0.98,1.07-1.66,3.01c0.18-0.07,0.37-0.13,0.55-0.18l0.61-0.18l-0.11,0.64c-0.18,1.07,0.2,2.61,0.48,3.51
	c0.45-0.42,0.92-0.8,1.43-1.13l0.33-0.23l0.23,0.33c0.01,0.02,1.19,1.7,3.23,4.03c1.47,1.66,3,2.6,4.22,3.35
	c0.83,0.51,1.55,0.94,2.07,1.49c4.23,4.32,8.87,2.68,10.34,1.27c0.94-0.85,4.04-3.07,7.42-5.04c3.25-1.87,4.36-5.14,4.37-5.17
	l0.12-0.38l0.38,0.11c0.65,0.19,1.2,0.84,1.56,1.37c0.46-1.49,0.56-3.82,0.56-3.85l0.02-0.55l0.52,0.18
	c0.22,0.08,0.42,0.2,0.61,0.33c-0.64-2.09-1.9-2.93-1.96-2.97l-1.02-0.66l1.34-0.1c-3.37-1.93-4.13-7.54-4.4-9.59
	c-0.02-0.13-0.03-0.25-0.05-0.35c-0.2-1.33-2.37-3.29-3.19-3.93l-0.19-0.15l0.08-0.57c0.36-5.1,5.11-8.63,5.31-8.79l0.34-0.25
	l0.24,0.34c4.26,6.11,9.25,8.98,13.17,10.42c1.75,0.63,3.55,1.1,5.39,1.41l0.57,0.11c1.16,0.25,1.56,0.16,1.66,0.12
	c-0.03-0.12-0.2-0.53-1.26-1.43c-2.96-2.53-5.54-6.23-7.53-9.75c-2.36-4.16-3.91-8.04-4.34-9.38c-0.68-1.81-1.38-2.66-2.4-2.86
	c-8.93-0.49-13.74,1.23-15.33,1.8l-0.23,0.08c-1.14,0.45-1.33,0.75-1.37,1.53c-0.15,2.54-1.34,14.73-1.35,14.86l-0.03,0.36
	l-4.29,0.04"/>
<path id="Selected_Rabbit_1_" class="st2" d="M121.86,136.25c0.13-0.56,0.4-3.42,0.72-11.4c0.24-5.96-2.91-12.41-5.59-16.77
	c-3.12-5.07-6.61-8.97-7.98-10.02c-2.84-2.19-9.89-9.4-10.4-9.93c-0.18-0.2-0.47-0.26-0.72-0.13c-0.2,0.16-0.19,0.69,0.31,1.53
	c1.1,1.87,3.08,8.93,4.39,13.61c0.32,1.16,0.61,2.16,0.8,2.83c0.53,1.79,0.97,5.47,1.45,9.39c0.39,3.24,0.8,6.59,1.26,8.79
	c0.96,4.65,7.74,13.08,7.81,13.17l0.29,0.36l-0.39,0.25c-0.02,0.02-2.54,1.61-3.73,3.38c-0.53,0.79-0.57,1.76-0.61,2.88
	c-0.06,1.33-0.12,2.83-1.02,4.39c-1.04,1.83-2.86,3.05-4.11,3.72c0.45,0.02,0.8,0.02,0.8,0.02l1.24-0.02l-0.99,0.76
	c-0.39,0.3-0.98,1.07-1.66,3.01c0.18-0.07,0.37-0.13,0.55-0.18l0.61-0.18l-0.11,0.64c-0.18,1.07,0.2,2.61,0.48,3.51
	c0.45-0.42,0.92-0.8,1.43-1.13l0.33-0.23l0.23,0.33c0.01,0.02,1.19,1.7,3.23,4.03c1.47,1.66,3,2.6,4.22,3.35
	c0.83,0.51,1.55,0.94,2.07,1.49c4.23,4.32,8.87,2.68,10.34,1.27c0.94-0.85,4.04-3.07,7.42-5.04c3.25-1.87,4.36-5.14,4.37-5.17
	l0.12-0.38l0.38,0.11c0.65,0.19,1.2,0.84,1.56,1.37c0.46-1.49,0.56-3.82,0.56-3.85l0.02-0.55l0.52,0.18
	c0.22,0.08,0.42,0.2,0.61,0.33c-0.64-2.09-1.9-2.93-1.96-2.97l-1.02-0.66l1.34-0.1c-3.37-1.93-4.13-7.54-4.4-9.59
	c-0.02-0.13-0.03-0.25-0.05-0.35c-0.2-1.33-2.37-3.29-3.19-3.93l-0.19-0.15l0.08-0.57c0.36-5.1,5.11-8.63,5.31-8.79l0.34-0.25
	l0.24,0.34c4.26,6.11,9.25,8.98,13.17,10.42c1.75,0.63,3.55,1.1,5.39,1.41l0.57,0.11c1.16,0.25,1.56,0.16,1.66,0.12
	c-0.03-0.12-0.2-0.53-1.26-1.43c-2.96-2.53-5.54-6.23-7.53-9.75c-2.36-4.16-3.91-8.04-4.34-9.38c-0.68-1.81-1.38-2.66-2.4-2.86
	c-8.93-0.49-13.74,1.23-15.33,1.8l-0.23,0.08c-1.14,0.45-1.33,0.75-1.37,1.53c-0.15,2.54-1.34,14.73-1.35,14.86l-0.03,0.36
	l-4.29,0.04"/>
<path id="Not_Selected_Rabbit_1_" class="st3" d="M121.86,136.25c0.13-0.56,0.4-3.42,0.72-11.4c0.24-5.96-2.91-12.41-5.59-16.77
	c-3.12-5.07-6.61-8.97-7.98-10.02c-2.84-2.19-9.89-9.4-10.4-9.93c-0.18-0.2-0.47-0.26-0.72-0.13c-0.2,0.16-0.19,0.69,0.31,1.53
	c1.1,1.87,3.08,8.93,4.39,13.61c0.32,1.16,0.61,2.16,0.8,2.83c0.53,1.79,0.97,5.47,1.45,9.39c0.39,3.24,0.8,6.59,1.26,8.79
	c0.96,4.65,7.74,13.08,7.81,13.17l0.29,0.36l-0.39,0.25c-0.02,0.02-2.54,1.61-3.73,3.38c-0.53,0.79-0.57,1.76-0.61,2.88
	c-0.06,1.33-0.12,2.83-1.02,4.39c-1.04,1.83-2.86,3.05-4.11,3.72c0.45,0.02,0.8,0.02,0.8,0.02l1.24-0.02l-0.99,0.76
	c-0.39,0.3-0.98,1.07-1.66,3.01c0.18-0.07,0.37-0.13,0.55-0.18l0.61-0.18l-0.11,0.64c-0.18,1.07,0.2,2.61,0.48,3.51
	c0.45-0.42,0.92-0.8,1.43-1.13l0.33-0.23l0.23,0.33c0.01,0.02,1.19,1.7,3.23,4.03c1.47,1.66,3,2.6,4.22,3.35
	c0.83,0.51,1.55,0.94,2.07,1.49c4.23,4.32,8.87,2.68,10.34,1.27c0.94-0.85,4.04-3.07,7.42-5.04c3.25-1.87,4.36-5.14,4.37-5.17
	l0.12-0.38l0.38,0.11c0.65,0.19,1.2,0.84,1.56,1.37c0.46-1.49,0.56-3.82,0.56-3.85l0.02-0.55l0.52,0.18
	c0.22,0.08,0.42,0.2,0.61,0.33c-0.64-2.09-1.9-2.93-1.96-2.97l-1.02-0.66l1.34-0.1c-3.37-1.93-4.13-7.54-4.4-9.59
	c-0.02-0.13-0.03-0.25-0.05-0.35c-0.2-1.33-2.37-3.29-3.19-3.93l-0.19-0.15l0.08-0.57c0.36-5.1,5.11-8.63,5.31-8.79l0.34-0.25
	l0.24,0.34c4.26,6.11,9.25,8.98,13.17,10.42c1.75,0.63,3.55,1.1,5.39,1.41l0.57,0.11c1.16,0.25,1.56,0.16,1.66,0.12
	c-0.03-0.12-0.2-0.53-1.26-1.43c-2.96-2.53-5.54-6.23-7.53-9.75c-2.36-4.16-3.91-8.04-4.34-9.38c-0.68-1.81-1.38-2.66-2.4-2.86
	c-8.93-0.49-13.74,1.23-15.33,1.8l-0.23,0.08c-1.14,0.45-1.33,0.75-1.37,1.53c-0.15,2.54-1.34,14.73-1.35,14.86l-0.03,0.36
	l-4.29,0.04"/>
<path id="Selected_Rabbit_2_" class="st2" d="M195,70.05c0.13-0.56,0.4-3.42,0.72-11.4c0.24-5.96-2.91-12.41-5.59-16.77
	c-3.12-5.07-6.61-8.97-7.98-10.02c-2.84-2.19-9.89-9.4-10.4-9.93c-0.18-0.2-0.47-0.26-0.72-0.13c-0.2,0.16-0.19,0.69,0.31,1.53
	c1.1,1.87,3.08,8.93,4.39,13.61c0.32,1.16,0.61,2.16,0.8,2.83c0.53,1.79,0.97,5.47,1.45,9.39c0.39,3.24,0.8,6.59,1.26,8.79
	c0.96,4.65,7.74,13.08,7.81,13.17l0.29,0.36l-0.39,0.25c-0.02,0.02-2.54,1.61-3.73,3.38c-0.53,0.79-0.57,1.76-0.61,2.88
	c-0.06,1.33-0.12,2.83-1.02,4.39c-1.04,1.83-2.86,3.05-4.11,3.72c0.45,0.02,0.8,0.02,0.8,0.02l1.24-0.02l-0.99,0.76
	c-0.39,0.3-0.98,1.07-1.66,3.01c0.18-0.07,0.37-0.13,0.55-0.18l0.61-0.18l-0.11,0.64c-0.18,1.07,0.2,2.61,0.48,3.51
	c0.45-0.42,0.92-0.8,1.43-1.13l0.33-0.23l0.23,0.33c0.01,0.02,1.19,1.7,3.23,4.03c1.47,1.66,3,2.6,4.22,3.35
	c0.83,0.51,1.55,0.94,2.07,1.49c4.23,4.32,8.87,2.68,10.34,1.27c0.94-0.85,4.04-3.07,7.42-5.04c3.25-1.87,4.36-5.14,4.37-5.17
	l0.12-0.38l0.38,0.11c0.65,0.19,1.2,0.84,1.56,1.37c0.46-1.49,0.56-3.82,0.56-3.85l0.02-0.55l0.52,0.18
	c0.22,0.08,0.42,0.2,0.61,0.33c-0.64-2.09-1.9-2.93-1.96-2.97l-1.02-0.66l1.34-0.1c-3.37-1.93-4.13-7.54-4.4-9.59
	c-0.02-0.13-0.03-0.25-0.05-0.35c-0.2-1.33-2.37-3.29-3.19-3.93l-0.19-0.15l0.08-0.57c0.36-5.1,5.11-8.63,5.31-8.79l0.34-0.25
	l0.24,0.34c4.26,6.11,9.25,8.98,13.17,10.42c1.75,0.63,3.55,1.1,5.39,1.41l0.57,0.11c1.16,0.25,1.56,0.16,1.66,0.12
	c-0.03-0.12-0.2-0.53-1.26-1.43c-2.96-2.53-5.54-6.23-7.53-9.75c-2.36-4.16-3.91-8.04-4.34-9.38c-0.68-1.81-1.38-2.66-2.4-2.86
	c-8.93-0.49-13.74,1.23-15.33,1.8l-0.23,0.08c-1.14,0.45-1.33,0.75-1.37,1.53c-0.15,2.54-1.34,14.73-1.35,14.86L199.29,70L195,70.04
	"/>
<path id="Not_Selected_Rabbit_2_" class="st3" d="M195,70.05c0.13-0.56,0.4-3.42,0.72-11.4c0.24-5.96-2.91-12.41-5.59-16.77
	c-3.12-5.07-6.61-8.97-7.98-10.02c-2.84-2.19-9.89-9.4-10.4-9.93c-0.18-0.2-0.47-0.26-0.72-0.13c-0.2,0.16-0.19,0.69,0.31,1.53
	c1.1,1.87,3.08,8.93,4.39,13.61c0.32,1.16,0.61,2.16,0.8,2.83c0.53,1.79,0.97,5.47,1.45,9.39c0.39,3.24,0.8,6.59,1.26,8.79
	c0.96,4.65,7.74,13.08,7.81,13.17l0.29,0.36l-0.39,0.25c-0.02,0.02-2.54,1.61-3.73,3.38c-0.53,0.79-0.57,1.76-0.61,2.88
	c-0.06,1.33-0.12,2.83-1.02,4.39c-1.04,1.83-2.86,3.05-4.11,3.72c0.45,0.02,0.8,0.02,0.8,0.02l1.24-0.02l-0.99,0.76
	c-0.39,0.3-0.98,1.07-1.66,3.01c0.18-0.07,0.37-0.13,0.55-0.18l0.61-0.18l-0.11,0.64c-0.18,1.07,0.2,2.61,0.48,3.51
	c0.45-0.42,0.92-0.8,1.43-1.13l0.33-0.23l0.23,0.33c0.01,0.02,1.19,1.7,3.23,4.03c1.47,1.66,3,2.6,4.22,3.35
	c0.83,0.51,1.55,0.94,2.07,1.49c4.23,4.32,8.87,2.68,10.34,1.27c0.94-0.85,4.04-3.07,7.42-5.04c3.25-1.87,4.36-5.14,4.37-5.17
	l0.12-0.38l0.38,0.11c0.65,0.19,1.2,0.84,1.56,1.37c0.46-1.49,0.56-3.82,0.56-3.85l0.02-0.55l0.52,0.18
	c0.22,0.08,0.42,0.2,0.61,0.33c-0.64-2.09-1.9-2.93-1.96-2.97l-1.02-0.66l1.34-0.1c-3.37-1.93-4.13-7.54-4.4-9.59
	c-0.02-0.13-0.03-0.25-0.05-0.35c-0.2-1.33-2.37-3.29-3.19-3.93l-0.19-0.15l0.08-0.57c0.36-5.1,5.11-8.63,5.31-8.79l0.34-0.25
	l0.24,0.34c4.26,6.11,9.25,8.98,13.17,10.42c1.75,0.63,3.55,1.1,5.39,1.41l0.57,0.11c1.16,0.25,1.56,0.16,1.66,0.12
	c-0.03-0.12-0.2-0.53-1.26-1.43c-2.96-2.53-5.54-6.23-7.53-9.75c-2.36-4.16-3.91-8.04-4.34-9.38c-0.68-1.81-1.38-2.66-2.4-2.86
	c-8.93-0.49-13.74,1.23-15.33,1.8l-0.23,0.08c-1.14,0.45-1.33,0.75-1.37,1.53c-0.15,2.54-1.34,14.73-1.35,14.86L199.29,70L195,70.04
	"/>
</svg>
