<?xml version="1.0" encoding="utf-8"?>
<!-- Generator: Adobe Illustrator 25.3.1, SVG Export Plug-In . SVG Version: 6.00 Build 0)  -->
<svg version="1.1" id="Selected" xmlns="http://www.w3.org/2000/svg" xmlns:xlink="http://www.w3.org/1999/xlink" x="0px" y="0px"
	 viewBox="0 0 256 256" style="enable-background:new 0 0 256 256;" xml:space="preserve">
<style type="text/css">
	.st0{display:none;fill:#E47D33;}
	.st1{fill:#E47D33;}
	.st2{opacity:0.51;fill:#FFFFFF;}
	.st3{opacity:0.51;fill:#8B8B8B;}
</style>
<path id="Selected_Rectangle" class="st0" d="M237.36,256H18.64C8.35,256,0,247.65,0,237.36V18.64C0,8.35,8.35,0,18.64,0h218.72
	C247.65,0,256,8.35,256,18.64v218.72C256,247.65,247.65,256,237.36,256z"/>
<g id="Not_Selected_Rectangle">
	<path class="st1" d="M237.36,8C243.23,8,248,12.77,248,18.64v218.72c0,5.87-4.77,10.64-10.64,10.64H18.64
		C12.77,248,8,243.23,8,237.36V18.64C8,12.77,12.77,8,18.64,8H237.36 M237.36,0H18.64C8.35,0,0,8.35,0,18.64v218.72
		C0,247.65,8.35,256,18.64,256h218.72c10.3,0,18.64-8.35,18.64-18.64V18.64C256,8.35,247.65,0,237.36,0L237.36,0z"/>
</g>
<path id="Selected_Rabbit" class="st2" d="M76,179.07c0.18-0.8,0.57-4.89,1.03-16.3c0.35-8.52-4.16-17.75-8-23.99
	c-4.46-7.25-9.45-12.83-11.41-14.33c-4.07-3.13-14.15-13.44-14.88-14.2c-0.26-0.29-0.68-0.36-1.02-0.19
	c-0.29,0.23-0.27,0.99,0.45,2.19c1.57,2.68,4.4,12.77,6.28,19.46c0.46,1.66,0.88,3.09,1.15,4.05c0.75,2.56,1.39,7.82,2.07,13.42
	c0.56,4.63,1.15,9.42,1.8,12.57c1.38,6.65,11.08,18.71,11.17,18.83l0.42,0.51l-0.56,0.35c-0.04,0.02-3.63,2.3-5.33,4.83
	c-0.75,1.13-0.81,2.51-0.88,4.12c-0.08,1.9-0.18,4.05-1.46,6.27c-1.49,2.61-4.09,4.36-5.88,5.32c0.64,0.03,1.14,0.02,1.15,0.02
	l1.78-0.04l-1.41,1.08c-0.56,0.43-1.4,1.53-2.38,4.31c0.26-0.1,0.52-0.19,0.79-0.26l0.88-0.25l-0.15,0.91
	c-0.26,1.53,0.29,3.73,0.69,5.01c0.64-0.6,1.32-1.14,2.05-1.62l0.48-0.33l0.33,0.48c0.02,0.02,1.71,2.43,4.62,5.76
	c2.1,2.38,4.29,3.72,6.04,4.79c1.19,0.72,2.21,1.35,2.97,2.13c6.05,6.19,12.69,3.84,14.78,1.82c1.35-1.21,5.77-4.38,10.62-7.21
	c4.64-2.67,6.23-7.35,6.24-7.4l0.18-0.54l0.54,0.16c0.93,0.28,1.72,1.21,2.24,1.96c0.65-2.13,0.8-5.46,0.8-5.5l0.03-0.78l0.74,0.25
	c0.31,0.12,0.61,0.28,0.88,0.47c-0.91-3-2.72-4.19-2.81-4.25l-1.46-0.94l1.92-0.15c-4.82-2.76-5.9-10.78-6.3-13.72
	c-0.03-0.19-0.05-0.36-0.07-0.5c-0.29-1.9-3.39-4.7-4.57-5.62l-0.27-0.21l0.12-0.81c0.51-7.29,7.31-12.35,7.6-12.57l0.48-0.35
	l0.34,0.49c6.09,8.73,13.24,12.85,18.84,14.91c2.5,0.9,5.08,1.57,7.71,2.01l0.82,0.15c1.67,0.36,2.23,0.23,2.38,0.18
	c-0.04-0.17-0.29-0.76-1.8-2.05c-4.24-3.62-7.92-8.92-10.77-13.94c-3.38-5.95-5.59-11.5-6.21-13.41c-0.97-2.59-1.98-3.8-3.44-4.09
	c-12.77-0.71-19.65,1.75-21.92,2.57l-0.33,0.12c-1.63,0.64-1.9,1.07-1.96,2.2c-0.21,3.63-1.91,21.07-1.93,21.25L82.14,179L76,179.05
	"/>
<path id="Not_Selected_Rabbit" class="st3" d="M76,179.07c0.18-0.8,0.57-4.89,1.03-16.3c0.35-8.52-4.16-17.75-8-23.99
	c-4.46-7.25-9.45-12.83-11.41-14.33c-4.07-3.13-14.15-13.44-14.88-14.2c-0.26-0.29-0.68-0.36-1.02-0.19
	c-0.29,0.23-0.27,0.99,0.45,2.19c1.57,2.68,4.4,12.77,6.28,19.46c0.46,1.66,0.88,3.09,1.15,4.05c0.75,2.56,1.39,7.82,2.07,13.42
	c0.56,4.63,1.15,9.42,1.8,12.57c1.38,6.65,11.08,18.71,11.17,18.83l0.42,0.51l-0.56,0.35c-0.04,0.02-3.63,2.3-5.33,4.83
	c-0.75,1.13-0.81,2.51-0.88,4.12c-0.08,1.9-0.18,4.05-1.46,6.27c-1.49,2.61-4.09,4.36-5.88,5.32c0.64,0.03,1.14,0.02,1.15,0.02
	l1.78-0.04l-1.41,1.08c-0.56,0.43-1.4,1.53-2.38,4.31c0.26-0.1,0.52-0.19,0.79-0.26l0.88-0.25l-0.15,0.91
	c-0.26,1.53,0.29,3.73,0.69,5.01c0.64-0.6,1.32-1.14,2.05-1.62l0.48-0.33l0.33,0.48c0.02,0.02,1.71,2.43,4.62,5.76
	c2.1,2.38,4.29,3.72,6.04,4.79c1.19,0.72,2.21,1.35,2.97,2.13c6.05,6.19,12.69,3.84,14.78,1.82c1.35-1.21,5.77-4.38,10.62-7.21
	c4.64-2.67,6.23-7.35,6.24-7.4l0.18-0.54l0.54,0.16c0.93,0.28,1.72,1.21,2.24,1.96c0.65-2.13,0.8-5.46,0.8-5.5l0.03-0.78l0.74,0.25
	c0.31,0.12,0.61,0.28,0.88,0.47c-0.91-3-2.72-4.19-2.81-4.25l-1.46-0.94l1.92-0.15c-4.82-2.76-5.9-10.78-6.3-13.72
	c-0.03-0.19-0.05-0.36-0.07-0.5c-0.29-1.9-3.39-4.7-4.57-5.62l-0.27-0.21l0.12-0.81c0.51-7.29,7.31-12.35,7.6-12.57l0.48-0.35
	l0.34,0.49c6.09,8.73,13.24,12.85,18.84,14.91c2.5,0.9,5.08,1.57,7.71,2.01l0.82,0.15c1.67,0.36,2.23,0.23,2.38,0.18
	c-0.04-0.17-0.29-0.76-1.8-2.05c-4.24-3.62-7.92-8.92-10.77-13.94c-3.38-5.95-5.59-11.5-6.21-13.41c-0.97-2.59-1.98-3.8-3.44-4.09
	c-12.77-0.71-19.65,1.75-21.92,2.57l-0.33,0.12c-1.63,0.64-1.9,1.07-1.96,2.2c-0.21,3.63-1.91,21.07-1.93,21.25L82.14,179L76,179.05
	"/>
<path id="Selected_Rabbit_1_" class="st2" d="M175,91.07c0.18-0.8,0.57-4.89,1.03-16.3c0.35-8.52-4.16-17.75-8-23.99
	c-4.46-7.25-9.45-12.83-11.41-14.33c-4.07-3.13-14.15-13.44-14.88-14.2c-0.26-0.29-0.68-0.36-1.02-0.19
	c-0.29,0.23-0.27,0.99,0.45,2.19c1.57,2.68,4.4,12.77,6.28,19.46c0.46,1.66,0.88,3.09,1.15,4.05c0.75,2.56,1.39,7.82,2.07,13.42
	c0.56,4.63,1.15,9.42,1.8,12.57c1.38,6.65,11.08,18.71,11.17,18.83l0.42,0.51l-0.56,0.35c-0.04,0.02-3.63,2.3-5.33,4.83
	c-0.75,1.13-0.81,2.51-0.88,4.12c-0.08,1.9-0.18,4.05-1.46,6.27c-1.49,2.61-4.09,4.36-5.88,5.32c0.64,0.03,1.14,0.02,1.15,0.02
	l1.78-0.04l-1.41,1.08c-0.56,0.43-1.4,1.53-2.38,4.31c0.26-0.1,0.52-0.19,0.79-0.26l0.88-0.25l-0.15,0.91
	c-0.26,1.53,0.29,3.73,0.69,5.01c0.64-0.6,1.32-1.14,2.05-1.62l0.48-0.33l0.33,0.48c0.02,0.02,1.71,2.43,4.62,5.76
	c2.1,2.38,4.29,3.72,6.04,4.79c1.19,0.72,2.21,1.35,2.97,2.13c6.05,6.19,12.69,3.84,14.78,1.82c1.35-1.21,5.77-4.38,10.62-7.21
	c4.64-2.67,6.23-7.35,6.24-7.4l0.18-0.54l0.54,0.16c0.93,0.28,1.72,1.21,2.24,1.96c0.65-2.13,0.8-5.46,0.8-5.5l0.03-0.78l0.74,0.25
	c0.31,0.12,0.61,0.28,0.88,0.47c-0.91-3-2.72-4.19-2.81-4.25l-1.46-0.94l1.92-0.15c-4.82-2.76-5.9-10.78-6.3-13.72
	c-0.03-0.19-0.05-0.36-0.07-0.5c-0.29-1.9-3.39-4.7-4.57-5.62l-0.27-0.21l0.12-0.81c0.51-7.29,7.31-12.35,7.6-12.57l0.48-0.35
	l0.34,0.49c6.09,8.73,13.24,12.85,18.84,14.91c2.5,0.9,5.08,1.57,7.71,2.01l0.82,0.15c1.67,0.36,2.23,0.23,2.38,0.18
	c-0.04-0.17-0.29-0.76-1.8-2.05c-4.24-3.62-7.92-8.92-10.77-13.94c-3.38-5.95-5.59-11.5-6.21-13.41c-0.97-2.59-1.98-3.8-3.44-4.09
	c-12.77-0.71-19.65,1.75-21.92,2.57l-0.33,0.12c-1.63,0.64-1.9,1.07-1.96,2.2c-0.21,3.63-1.91,21.07-1.93,21.25L181.14,91L175,91.05
	"/>
<path id="Not_Selected_Rabbit_1_" class="st3" d="M175,91.07c0.18-0.8,0.57-4.89,1.03-16.3c0.35-8.52-4.16-17.75-8-23.99
	c-4.46-7.25-9.45-12.83-11.41-14.33c-4.07-3.13-14.15-13.44-14.88-14.2c-0.26-0.29-0.68-0.36-1.02-0.19
	c-0.29,0.23-0.27,0.99,0.45,2.19c1.57,2.68,4.4,12.77,6.28,19.46c0.46,1.66,0.88,3.09,1.15,4.05c0.75,2.56,1.39,7.82,2.07,13.42
	c0.56,4.63,1.15,9.42,1.8,12.57c1.38,6.65,11.08,18.71,11.17,18.83l0.42,0.51l-0.56,0.35c-0.04,0.02-3.63,2.3-5.33,4.83
	c-0.75,1.13-0.81,2.51-0.88,4.12c-0.08,1.9-0.18,4.05-1.46,6.27c-1.49,2.61-4.09,4.36-5.88,5.32c0.64,0.03,1.14,0.02,1.15,0.02
	l1.78-0.04l-1.41,1.08c-0.56,0.43-1.4,1.53-2.38,4.31c0.26-0.1,0.52-0.19,0.79-0.26l0.88-0.25l-0.15,0.91
	c-0.26,1.53,0.29,3.73,0.69,5.01c0.64-0.6,1.32-1.14,2.05-1.62l0.48-0.33l0.33,0.48c0.02,0.02,1.71,2.43,4.62,5.76
	c2.1,2.38,4.29,3.72,6.04,4.79c1.19,0.72,2.21,1.35,2.97,2.13c6.05,6.19,12.69,3.84,14.78,1.82c1.35-1.21,5.77-4.38,10.62-7.21
	c4.64-2.67,6.23-7.35,6.24-7.4l0.18-0.54l0.54,0.16c0.93,0.28,1.72,1.21,2.24,1.96c0.65-2.13,0.8-5.46,0.8-5.5l0.03-0.78l0.74,0.25
	c0.31,0.12,0.61,0.28,0.88,0.47c-0.91-3-2.72-4.19-2.81-4.25l-1.46-0.94l1.92-0.15c-4.82-2.76-5.9-10.78-6.3-13.72
	c-0.03-0.19-0.05-0.36-0.07-0.5c-0.29-1.9-3.39-4.7-4.57-5.62l-0.27-0.21l0.12-0.81c0.51-7.29,7.31-12.35,7.6-12.57l0.48-0.35
	l0.34,0.49c6.09,8.73,13.24,12.85,18.84,14.91c2.5,0.9,5.08,1.57,7.71,2.01l0.82,0.15c1.67,0.36,2.23,0.23,2.38,0.18
	c-0.04-0.17-0.29-0.76-1.8-2.05c-4.24-3.62-7.92-8.92-10.77-13.94c-3.38-5.95-5.59-11.5-6.21-13.41c-0.97-2.59-1.98-3.8-3.44-4.09
	c-12.77-0.71-19.65,1.75-21.92,2.57l-0.33,0.12c-1.63,0.64-1.9,1.07-1.96,2.2c-0.21,3.63-1.91,21.07-1.93,21.25L181.14,91L175,91.05
	"/>
</svg>
