<?xml version="1.0" encoding="utf-8"?>
<!-- Generator: Adobe Illustrator 25.3.1, SVG Export Plug-In . SVG Version: 6.00 Build 0)  -->
<svg version="1.1" id="Selected" xmlns="http://www.w3.org/2000/svg" xmlns:xlink="http://www.w3.org/1999/xlink" x="0px" y="0px"
	 viewBox="0 0 256 256" style="enable-background:new 0 0 256 256;" xml:space="preserve">
<style type="text/css">
	.st0{display:none;fill:#E47D33;}
	.st1{fill:#E47D33;}
	.st2{opacity:0.51;fill:#FFFFFF;}
	.st3{opacity:0.51;fill:#8B8B8B;}
</style>
<path id="Selected_Rectangle" class="st0" d="M237.36,256H18.64C8.35,256,0,247.65,0,237.36V18.64C0,8.35,8.35,0,18.64,0h218.72
	C247.65,0,256,8.35,256,18.64v218.72C256,247.65,247.65,256,237.36,256z"/>
<g id="Not_Selected_Rectangle">
	<path class="st1" d="M237.36,8C243.23,8,248,12.77,248,18.64v218.72c0,5.87-4.77,10.64-10.64,10.64H18.64
		C12.77,248,8,243.23,8,237.36V18.64C8,12.77,12.77,8,18.64,8H237.36 M237.36,0H18.64C8.35,0,0,8.35,0,18.64v218.72
		C0,247.65,8.35,256,18.64,256h218.72c10.3,0,18.64-8.35,18.64-18.64V18.64C256,8.35,247.65,0,237.36,0L237.36,0z"/>
</g>
<path id="Selected_Rabbit" class="st2" d="M124,145.12c0.31-1.34,0.95-8.23,1.74-27.44c0.59-14.34-7-29.88-13.47-40.38
	c-7.51-12.2-15.91-21.6-19.21-24.12c-6.85-5.28-23.82-22.63-25.04-23.91c-0.44-0.48-1.14-0.61-1.72-0.32
	c-0.49,0.38-0.46,1.67,0.76,3.69c2.65,4.51,7.41,21.5,10.57,32.76c0.78,2.8,1.48,5.21,1.93,6.81c1.26,4.31,2.35,13.16,3.49,22.6
	c0.95,7.8,1.93,15.87,3.03,21.16c2.32,11.19,18.65,31.5,18.81,31.71l0.7,0.86l-0.94,0.59c-0.06,0.04-6.11,3.87-8.97,8.13
	c-1.26,1.89-1.37,4.23-1.48,6.94c-0.14,3.19-0.3,6.81-2.46,10.56c-2.5,4.39-6.89,7.35-9.9,8.96c1.07,0.05,1.91,0.04,1.93,0.04
	l3-0.06l-2.38,1.82c-0.94,0.72-2.36,2.58-4.01,7.26c0.44-0.17,0.88-0.32,1.33-0.44l1.48-0.43l-0.26,1.54
	c-0.44,2.57,0.49,6.28,1.17,8.44c1.07-1,2.22-1.92,3.44-2.73l0.8-0.56l0.56,0.8c0.03,0.04,2.87,4.09,7.79,9.69
	c3.54,4.01,7.21,6.26,10.17,8.07c2,1.22,3.72,2.27,4.99,3.59c10.19,10.41,21.36,6.46,24.89,3.06c2.27-2.04,9.72-7.38,17.87-12.14
	c7.82-4.5,10.49-12.37,10.51-12.45l0.3-0.91l0.92,0.28c1.56,0.47,2.9,2.03,3.76,3.31c1.1-3.59,1.34-9.2,1.35-9.26l0.05-1.31
	l1.25,0.42c0.52,0.2,1.02,0.47,1.48,0.8c-1.53-5.04-4.58-7.06-4.73-7.16l-2.46-1.58l3.23-0.25c-8.12-4.65-9.94-18.14-10.6-23.1
	c-0.04-0.32-0.08-0.6-0.12-0.84c-0.49-3.19-5.71-7.92-7.69-9.47l-0.45-0.35l0.2-1.37c0.87-12.27,12.3-20.79,12.79-21.16l0.81-0.6
	l0.58,0.83c10.25,14.7,22.28,21.63,31.72,25.1c4.21,1.52,8.55,2.65,12.97,3.39l1.37,0.26c2.81,0.6,3.75,0.39,4.01,0.3
	c-0.07-0.29-0.49-1.27-3.03-3.44c-7.14-6.09-13.33-15.01-18.13-23.47c-5.68-10.01-9.41-19.36-10.45-22.58
	c-1.64-4.37-3.33-6.4-5.79-6.89c-21.51-1.19-33.09,2.95-36.91,4.33l-0.55,0.2c-2.75,1.08-3.2,1.8-3.31,3.7
	c-0.35,6.11-3.22,35.48-3.25,35.77l-0.08,0.87L124,145.09"/>
<path id="Not_Selected_Rabbit" class="st3" d="M124,145.12c0.31-1.34,0.95-8.23,1.74-27.44c0.59-14.34-7-29.88-13.47-40.38
	c-7.51-12.2-15.91-21.6-19.21-24.12c-6.85-5.28-23.82-22.63-25.04-23.91c-0.44-0.48-1.14-0.61-1.72-0.32
	c-0.49,0.38-0.46,1.67,0.76,3.69c2.65,4.51,7.41,21.5,10.57,32.76c0.78,2.8,1.48,5.21,1.93,6.81c1.26,4.31,2.35,13.16,3.49,22.6
	c0.95,7.8,1.93,15.87,3.03,21.16c2.32,11.19,18.65,31.5,18.81,31.71l0.7,0.86l-0.94,0.59c-0.06,0.04-6.11,3.87-8.97,8.13
	c-1.26,1.89-1.37,4.23-1.48,6.94c-0.14,3.19-0.3,6.81-2.46,10.56c-2.5,4.39-6.89,7.35-9.9,8.96c1.07,0.05,1.91,0.04,1.93,0.04
	l3-0.06l-2.38,1.82c-0.94,0.72-2.36,2.58-4.01,7.26c0.44-0.17,0.88-0.32,1.33-0.44l1.48-0.43l-0.26,1.54
	c-0.44,2.57,0.49,6.28,1.17,8.44c1.07-1,2.22-1.92,3.44-2.73l0.8-0.56l0.56,0.8c0.03,0.04,2.87,4.09,7.79,9.69
	c3.54,4.01,7.21,6.26,10.17,8.07c2,1.22,3.72,2.27,4.99,3.59c10.19,10.41,21.36,6.46,24.89,3.06c2.27-2.04,9.72-7.38,17.87-12.14
	c7.82-4.5,10.49-12.37,10.51-12.45l0.3-0.91l0.92,0.28c1.56,0.47,2.9,2.03,3.76,3.31c1.1-3.59,1.34-9.2,1.35-9.26l0.05-1.31
	l1.25,0.42c0.52,0.2,1.02,0.47,1.48,0.8c-1.53-5.04-4.58-7.06-4.73-7.16l-2.46-1.58l3.23-0.25c-8.12-4.65-9.94-18.14-10.6-23.1
	c-0.04-0.32-0.08-0.6-0.12-0.84c-0.49-3.19-5.71-7.92-7.69-9.47l-0.45-0.35l0.2-1.37c0.87-12.27,12.3-20.79,12.79-21.16l0.81-0.6
	l0.58,0.83c10.25,14.7,22.28,21.63,31.72,25.1c4.21,1.52,8.55,2.65,12.97,3.39l1.37,0.26c2.81,0.6,3.75,0.39,4.01,0.3
	c-0.07-0.29-0.49-1.27-3.03-3.44c-7.14-6.09-13.33-15.01-18.13-23.47c-5.68-10.01-9.41-19.36-10.45-22.58
	c-1.64-4.37-3.33-6.4-5.79-6.89c-21.51-1.19-33.09,2.95-36.91,4.33l-0.55,0.2c-2.75,1.08-3.2,1.8-3.31,3.7
	c-0.35,6.11-3.22,35.48-3.25,35.77l-0.08,0.87L124,145.09"/>
</svg>
